<?xml version="1.0" encoding="UTF-8" standalone="no"?>
<!-- Created with Inkscape (http://www.inkscape.org/) -->

<svg
   xmlns:dc="http://purl.org/dc/elements/1.1/"
   xmlns:cc="http://creativecommons.org/ns#"
   xmlns:rdf="http://www.w3.org/1999/02/22-rdf-syntax-ns#"
   xmlns:svg="http://www.w3.org/2000/svg"
   xmlns="http://www.w3.org/2000/svg"
   xmlns:sodipodi="http://sodipodi.sourceforge.net/DTD/sodipodi-0.dtd"
   xmlns:inkscape="http://www.inkscape.org/namespaces/inkscape"
   width="965"
   height="485"
   id="svg2"
   version="1.1"
   inkscape:version="0.48.4 r9939"
   sodipodi:docname="logo.svg">
  <defs
     id="defs4">
    <linearGradient
       id="linearGradient4657">
      <stop
         id="stop4665"
         offset="0"
         style="stop-color:#222222;stop-opacity:1;" />
      <stop
         style="stop-color:#d1d1d1;stop-opacity:1;"
         offset="1"
         id="stop4661" />
    </linearGradient>
  </defs>
  <sodipodi:namedview
     id="base"
     pagecolor="#ffffff"
     bordercolor="#666666"
     borderopacity="1.0"
     inkscape:pageopacity="0.0"
     inkscape:pageshadow="2"
     inkscape:zoom="0.35"
     inkscape:cx="254.22861"
     inkscape:cy="336.78145"
     inkscape:document-units="px"
     inkscape:current-layer="layer1"
     showgrid="true"
     inkscape:showpageshadow="false"
     inkscape:window-width="2030"
     inkscape:window-height="1072"
     inkscape:window-x="1"
     inkscape:window-y="1"
     inkscape:window-maximized="1"
     inkscape:snap-bbox="true"
     fit-margin-top="0"
     fit-margin-left="0"
     fit-margin-right="0"
     fit-margin-bottom="0">
    <inkscape:grid
       empspacing="1"
       visible="false"
       enabled="true"
       snapvisiblegridlinesonly="true"
       spacingx="25px"
       spacingy="25px"
       dotted="true"
       type="xygrid"
       id="grid2985"
       originx="25px"
       originy="25.00002px" />
  </sodipodi:namedview>
  <metadata
     id="metadata7">
    <rdf:RDF>
      <cc:Work
         rdf:about="">
        <dc:format>image/svg+xml</dc:format>
        <dc:type
           rdf:resource="http://purl.org/dc/dcmitype/StillImage" />
      </cc:Work>
    </rdf:RDF>
  </metadata>
  <g
     inkscape:label="Layer 1"
     inkscape:groupmode="layer"
     id="layer1"
     transform="translate(25,-592.36219)">
    <path
       inkscape:connector-curvature="0"
       style="fill:#0f0f0f;fill-opacity:1;stroke:none"
       d="m 104,723.36218 25,0 0,25 -25,0 z"
       id="rect2992-52" />
    <path
       inkscape:connector-curvature="0"
       style="fill:#0f0f0f;fill-opacity:1;stroke:none"
       d="m 104,748.36218 25,0 0,25 -25,0 z"
       id="rect2992-76" />
    <path
       inkscape:connector-curvature="0"
       style="fill:#262626;fill-opacity:1;stroke:none"
       d="m 129,723.36218 25,0 0,25 -25,0 z"
       id="rect2992-23" />
    <path
       inkscape:connector-curvature="0"
       style="fill:#262626;fill-opacity:1;stroke:none"
       d="m 129,748.36218 25,0 0,25 -25,0 z"
       id="rect2992-22" />
    <path
       inkscape:connector-curvature="0"
       style="fill:#686868;fill-opacity:1;stroke:none"
       d="m 154,748.36218 25,0 0,25 -25,0 z"
       id="rect2992-761" />
    <path
       inkscape:connector-curvature="0"
       style="fill:#6d6d6d;fill-opacity:1;stroke:none"
       d="m 179,748.36218 25,0 0,25 -25,0 z"
       id="rect2992-43" />
    <path
       inkscape:connector-curvature="0"
       style="fill:#717171;fill-opacity:1;stroke:none"
       d="m 204,748.36218 25,0 0,25 -25,0 z"
       id="rect2992-43-3" />
    <path
       inkscape:connector-curvature="0"
       style="fill:#808080;fill-opacity:1;stroke:none"
       d="m 229,748.36218 25,0 0,25 -25,0 z"
       id="rect2992-43-2" />
    <path
       inkscape:connector-curvature="0"
       style="fill:#808080;fill-opacity:1;stroke:none"
       d="m 254,748.36218 25,0 0,25 -25,0 z"
       id="rect2992-43-1" />
    <path
       inkscape:connector-curvature="0"
       style="fill:#808080;fill-opacity:1;stroke:none"
       d="m 279,748.36218 25,0 0,25 -25,0 z"
       id="rect2992-43-5" />
    <path
       inkscape:connector-curvature="0"
       style="fill:#8a8a8a;fill-opacity:1;stroke:none"
       d="m 304,748.36218 25,0 0,25 -25,0 z"
       id="rect2992-43-6" />
    <path
       inkscape:connector-curvature="0"
       style="fill:#8d8d8d;fill-opacity:1;stroke:none"
       d="m 329,723.36218 25,0 0,25 -25,0 z"
       id="rect2992-2-8" />
    <path
       inkscape:connector-curvature="0"
       style="fill:#8d8d8d;fill-opacity:1;stroke:none"
       d="m 329,748.36218 25,0 0,25 -25,0 z"
       id="rect2992-2-6" />
    <path
       inkscape:connector-curvature="0"
       style="fill:#989898;fill-opacity:1;stroke:none"
       d="m 354,748.36218 25,0 0,25 -25,0 z"
       id="rect2992-2-5" />
    <path
       inkscape:connector-curvature="0"
       style="fill:#cacaca;fill-opacity:1;stroke:none"
       d="m 379,748.36218 25,0 0,25 -25,0 z"
       id="rect2992-2-0" />
    <path
       inkscape:connector-curvature="0"
       style="fill:#cacaca;fill-opacity:1;stroke:none"
       d="m 379,723.36218 25,0 0,25 -25,0 z"
       id="rect2992-2-9" />
    <path
       inkscape:connector-curvature="0"
       style="fill:#989898;fill-opacity:1;stroke:none"
       d="m 354,723.36218 25,0 0,25 -25,0 z"
       id="rect2992-2-00" />
    <path
       style="fill:#0f0f0f;fill-opacity:1;stroke:none"
       d="m 104,773.36218 25,0 0,25 -25,0 z"
       id="rect2992-3"
       inkscape:connector-curvature="0" />
    <path
       inkscape:connector-curvature="0"
       style="fill:#cacaca;fill-opacity:1;stroke:none"
       d="m 379,773.36218 25,0 0,25 -25,0 z"
       id="rect2992-5-7" />
    <path
       inkscape:connector-curvature="0"
       style="fill:#0f0f0f;fill-opacity:1;stroke:none"
       d="m 104,798.36218 25,0 0,25 -25,0 z"
       id="rect2992-52-2" />
    <path
       inkscape:connector-curvature="0"
       style="fill:#0f0f0f;fill-opacity:1;stroke:none"
       d="m 104,823.36218 25,0 0,25 -25,0 z"
       id="rect2992-76-6" />
    <path
       inkscape:connector-curvature="0"
       style="fill:#262626;fill-opacity:1;stroke:none"
       d="m 129,773.36218 25,0 0,25 -25,0 z"
       id="rect2992-14-0" />
    <path
       inkscape:connector-curvature="0"
       style="fill:#262626;fill-opacity:1;stroke:none"
       d="m 129,798.36218 25,0 0,25 -25,0 z"
       id="rect2992-23-1" />
    <path
       inkscape:connector-curvature="0"
       style="fill:#262626;fill-opacity:1;stroke:none"
       d="m 129,823.36218 25,0 0,25 -25,0 z"
       id="rect2992-22-6" />
    <path
       inkscape:connector-curvature="0"
       style="fill:#686868;fill-opacity:1;stroke:none"
       d="m 154,773.36218 25,0 0,25 -25,0 z"
       id="rect2992-16-5" />
    <path
       inkscape:connector-curvature="0"
       style="fill:#686868;fill-opacity:1;stroke:none"
       d="m 154,798.36218 25,0 0,25 -25,0 z"
       id="rect2992-85-7" />
    <path
       inkscape:connector-curvature="0"
       style="fill:#686868;fill-opacity:1;stroke:none"
       d="m 154,823.36218 25,0 0,25 -25,0 z"
       id="rect2992-761-5" />
    <path
       inkscape:connector-curvature="0"
       style="fill:#6d6d6d;fill-opacity:1;stroke:none"
       d="m 179,773.36218 25,0 0,25 -25,0 z"
       id="rect2992-27-4" />
    <path
       inkscape:connector-curvature="0"
       style="fill:#6d6d6d;fill-opacity:1;stroke:none"
       d="m 179,798.36218 25,0 0,25 -25,0 z"
       id="rect2992-95-12" />
    <path
       inkscape:connector-curvature="0"
       style="fill:#6d6d6d;fill-opacity:1;stroke:none"
       d="m 179,823.36218 25,0 0,25 -25,0 z"
       id="rect2992-43-0" />
    <path
       inkscape:connector-curvature="0"
       style="fill:#717171;fill-opacity:1;stroke:none"
       d="m 204,773.36218 25,0 0,25 -25,0 z"
       id="rect2992-27-1-0" />
    <path
       inkscape:connector-curvature="0"
       style="fill:#717171;fill-opacity:1;stroke:none"
       d="m 204,798.36218 25,0 0,25 -25,0 z"
       id="rect2992-95-1-1" />
    <path
       inkscape:connector-curvature="0"
       style="fill:#717171;fill-opacity:1;stroke:none"
       d="m 204,823.36218 25,0 0,25 -25,0 z"
       id="rect2992-43-3-4" />
    <path
       inkscape:connector-curvature="0"
       style="fill:#808080;fill-opacity:1;stroke:none"
       d="m 229,773.36218 25,0 0,25 -25,0 z"
       id="rect2992-27-7-6" />
    <path
       inkscape:connector-curvature="0"
       style="fill:#808080;fill-opacity:1;stroke:none"
       d="m 229,798.36218 25,0 0,25 -25,0 z"
       id="rect2992-95-4-0" />
    <path
       inkscape:connector-curvature="0"
       style="fill:#808080;fill-opacity:1;stroke:none"
       d="m 229,823.36218 25,0 0,25 -25,0 z"
       id="rect2992-43-2-7" />
    <path
       inkscape:connector-curvature="0"
       style="fill:#808080;fill-opacity:1;stroke:none"
       d="m 254,773.36218 25,0 0,25 -25,0 z"
       id="rect2992-27-79-1" />
    <path
       inkscape:connector-curvature="0"
       style="fill:#808080;fill-opacity:1;stroke:none"
       d="m 254,798.36218 25,0 0,25 -25,0 z"
       id="rect2992-95-3-7" />
    <path
       inkscape:connector-curvature="0"
       style="fill:#808080;fill-opacity:1;stroke:none"
       d="m 254,823.36218 25,0 0,25 -25,0 z"
       id="rect2992-43-1-7" />
    <path
       inkscape:connector-curvature="0"
       style="fill:#808080;fill-opacity:1;stroke:none"
       d="m 279,773.36218 25,0 0,25 -25,0 z"
       id="rect2992-27-8-7" />
    <path
       inkscape:connector-curvature="0"
       style="fill:#808080;fill-opacity:1;stroke:none"
       d="m 279,798.36218 25,0 0,25 -25,0 z"
       id="rect2992-95-6-7" />
    <path
       inkscape:connector-curvature="0"
       style="fill:#808080;fill-opacity:1;stroke:none"
       d="m 279,823.36218 25,0 0,25 -25,0 z"
       id="rect2992-43-5-3" />
    <path
       inkscape:connector-curvature="0"
       style="fill:#8a8a8a;fill-opacity:1;stroke:none"
       d="m 304,773.36218 25,0 0,25 -25,0 z"
       id="rect2992-27-2-3" />
    <path
       inkscape:connector-curvature="0"
       style="fill:#8a8a8a;fill-opacity:1;stroke:none"
       d="m 304,798.36218 25,0 0,25 -25,0 z"
       id="rect2992-95-8-5" />
    <path
       inkscape:connector-curvature="0"
       style="fill:#8a8a8a;fill-opacity:1;stroke:none"
       d="m 304,823.36218 25,0 0,25 -25,0 z"
       id="rect2992-43-6-9" />
    <path
       inkscape:connector-curvature="0"
       style="fill:#8d8d8d;fill-opacity:1;stroke:none"
       d="m 329,773.36218 25,0 0,25 -25,0 z"
       id="rect2992-2-2-9" />
    <path
       inkscape:connector-curvature="0"
       style="fill:#8d8d8d;fill-opacity:1;stroke:none"
       d="m 329,798.36218 25,0 0,25 -25,0 z"
       id="rect2992-2-8-8" />
    <path
       inkscape:connector-curvature="0"
       style="fill:#8d8d8d;fill-opacity:1;stroke:none"
       d="m 329,823.36218 25,0 0,25 -25,0 z"
       id="rect2992-2-6-1" />
    <path
       inkscape:connector-curvature="0"
       style="fill:#989898;fill-opacity:1;stroke:none"
       d="m 354,823.36218 25,0 0,25 -25,0 z"
       id="rect2992-2-5-8" />
    <path
       inkscape:connector-curvature="0"
       style="fill:#cacaca;fill-opacity:1;stroke:none"
       d="m 379,823.36218 25,0 0,25 -25,0 z"
       id="rect2992-2-0-2" />
    <path
       inkscape:connector-curvature="0"
       style="fill:#cacaca;fill-opacity:1;stroke:none"
       d="m 379,798.36218 25,0 0,25 -25,0 z"
       id="rect2992-2-9-6" />
    <path
       inkscape:connector-curvature="0"
       style="fill:#989898;fill-opacity:1;stroke:none"
       d="m 354,798.36218 25,0 0,25 -25,0 z"
       id="rect2992-2-00-6" />
    <path
       inkscape:connector-curvature="0"
       style="fill:#989898;fill-opacity:1;stroke:none"
       d="m 354,773.36218 25,0 0,25 -25,0 z"
       id="rect2992-2-61-0" />
    <path
       style="fill:#0f0f0f;fill-opacity:1;stroke:none"
       d="m 104,848.36218 25,0 0,25 -25,0 z"
       id="rect2992-38"
       inkscape:connector-curvature="0" />
    <path
       inkscape:connector-curvature="0"
       style="fill:#cacaca;fill-opacity:1;stroke:none"
       d="m 379,848.36218 25,0 0,25 -25,0 z"
       id="rect2992-5-0" />
    <path
       inkscape:connector-curvature="0"
       style="fill:#0f0f0f;fill-opacity:1;stroke:none"
       d="m 104,873.36218 25,0 0,25 -25,0 z"
       id="rect2992-52-1" />
    <path
       inkscape:connector-curvature="0"
       style="fill:#0f0f0f;fill-opacity:1;stroke:none"
       d="m 79,898.36218 25,0 0,25 -25,0 z"
       id="rect2992-76-2" />
    <path
       inkscape:connector-curvature="0"
       style="fill:#262626;fill-opacity:1;stroke:none"
       d="m 129,848.36218 25,0 0,25 -25,0 z"
       id="rect2992-14-5" />
    <path
       inkscape:connector-curvature="0"
       style="fill:#262626;fill-opacity:1;stroke:none"
       d="m 129,873.36218 25,0 0,25 -25,0 z"
       id="rect2992-23-0" />
    <path
       inkscape:connector-curvature="0"
       style="fill:#262626;fill-opacity:1;stroke:none"
       d="m 129,898.36218 25,0 0,25 -25,0 z"
       id="rect2992-22-9" />
    <path
       inkscape:connector-curvature="0"
       style="fill:#686868;fill-opacity:1;stroke:none"
       d="m 154,848.36218 25,0 0,25 -25,0 z"
       id="rect2992-16-4" />
    <path
       inkscape:connector-curvature="0"
       style="fill:#686868;fill-opacity:1;stroke:none"
       d="m 154,873.36218 25,0 0,25 -25,0 z"
       id="rect2992-85-78" />
    <path
       inkscape:connector-curvature="0"
       style="fill:#686868;fill-opacity:1;stroke:none"
       d="m 154,898.36218 25,0 0,25 -25,0 z"
       id="rect2992-761-3" />
    <path
       inkscape:connector-curvature="0"
       style="fill:#6d6d6d;fill-opacity:1;stroke:none"
       d="m 179,848.36218 25,0 0,25 -25,0 z"
       id="rect2992-27-5" />
    <path
       inkscape:connector-curvature="0"
       style="fill:#6d6d6d;fill-opacity:1;stroke:none"
       d="m 179,873.36218 25,0 0,25 -25,0 z"
       id="rect2992-95-120" />
    <path
       inkscape:connector-curvature="0"
       style="fill:#6d6d6d;fill-opacity:1;stroke:none"
       d="m 179,898.36218 25,0 0,25 -25,0 z"
       id="rect2992-43-16" />
    <path
       inkscape:connector-curvature="0"
       style="fill:#717171;fill-opacity:1;stroke:none"
       d="m 204,848.36218 25,0 0,25 -25,0 z"
       id="rect2992-27-1-4" />
    <path
       inkscape:connector-curvature="0"
       style="fill:#717171;fill-opacity:1;stroke:none"
       d="m 204,873.36218 25,0 0,25 -25,0 z"
       id="rect2992-95-1-0" />
    <path
       inkscape:connector-curvature="0"
       style="fill:#717171;fill-opacity:1;stroke:none"
       d="m 204,898.36218 25,0 0,25 -25,0 z"
       id="rect2992-43-3-6" />
    <path
       inkscape:connector-curvature="0"
       style="fill:#808080;fill-opacity:1;stroke:none"
       d="m 229,848.36218 25,0 0,25 -25,0 z"
       id="rect2992-27-7-1" />
    <path
       inkscape:connector-curvature="0"
       style="fill:#808080;fill-opacity:1;stroke:none"
       d="m 229,873.36218 25,0 0,25 -25,0 z"
       id="rect2992-95-4-8" />
    <path
       inkscape:connector-curvature="0"
       style="fill:#808080;fill-opacity:1;stroke:none"
       d="m 229,898.36218 25,0 0,25 -25,0 z"
       id="rect2992-43-2-9" />
    <path
       inkscape:connector-curvature="0"
       style="fill:#808080;fill-opacity:1;stroke:none"
       d="m 254,848.36218 25,0 0,25 -25,0 z"
       id="rect2992-27-79-8" />
    <path
       inkscape:connector-curvature="0"
       style="fill:#808080;fill-opacity:1;stroke:none"
       d="m 254,873.36218 25,0 0,25 -25,0 z"
       id="rect2992-95-3-4" />
    <path
       inkscape:connector-curvature="0"
       style="fill:#808080;fill-opacity:1;stroke:none"
       d="m 254,898.36218 25,0 0,25 -25,0 z"
       id="rect2992-43-1-1" />
    <path
       inkscape:connector-curvature="0"
       style="fill:#808080;fill-opacity:1;stroke:none"
       d="m 279,848.36218 25,0 0,25 -25,0 z"
       id="rect2992-27-8-4" />
    <path
       inkscape:connector-curvature="0"
       style="fill:#808080;fill-opacity:1;stroke:none"
       d="m 279,873.36218 25,0 0,25 -25,0 z"
       id="rect2992-95-6-3" />
    <path
       inkscape:connector-curvature="0"
       style="fill:#808080;fill-opacity:1;stroke:none"
       d="m 304,898.36218 25,0 0,25 -25,0 z"
       id="rect2992-43-5-9" />
    <path
       inkscape:connector-curvature="0"
       style="fill:#8a8a8a;fill-opacity:1;stroke:none"
       d="m 304,848.36218 25,0 0,25 -25,0 z"
       id="rect2992-27-2-8" />
    <path
       inkscape:connector-curvature="0"
       style="fill:#8a8a8a;fill-opacity:1;stroke:none"
       d="m 304,873.36218 25,0 0,25 -25,0 z"
       id="rect2992-95-8-8" />
    <path
       inkscape:connector-curvature="0"
       style="fill:#8a8a8a;fill-opacity:1;stroke:none"
       d="m 329,898.36218 25,0 0,25 -25,0 z"
       id="rect2992-43-6-0" />
    <path
       inkscape:connector-curvature="0"
       style="fill:#8d8d8d;fill-opacity:1;stroke:none"
       d="m 329,848.36218 25,0 0,25 -25,0 z"
       id="rect2992-2-2-8" />
    <path
       inkscape:connector-curvature="0"
       style="fill:#8d8d8d;fill-opacity:1;stroke:none"
       d="m 329,873.36218 25,0 0,25 -25,0 z"
       id="rect2992-2-8-7" />
    <path
       inkscape:connector-curvature="0"
       style="fill:#8d8d8d;fill-opacity:1;stroke:none"
       d="m 379,898.36218 25,0 0,25 -25,0 z"
       id="rect2992-2-6-7" />
    <path
       inkscape:connector-curvature="0"
       style="fill:#989898;fill-opacity:1;stroke:none"
       d="m 354,898.36218 25,0 0,25 -25,0 z"
       id="rect2992-2-5-83" />
    <path
       inkscape:connector-curvature="0"
       style="fill:#cacaca;fill-opacity:1;stroke:none"
       d="m 404,898.36218 25,0 0,25 -25,0 z"
       id="rect2992-2-0-8" />
    <path
       inkscape:connector-curvature="0"
       style="fill:#cacaca;fill-opacity:1;stroke:none"
       d="m 379,873.36218 25,0 0,25 -25,0 z"
       id="rect2992-2-9-3" />
    <path
       inkscape:connector-curvature="0"
       style="fill:#989898;fill-opacity:1;stroke:none"
       d="m 354,873.36218 25,0 0,25 -25,0 z"
       id="rect2992-2-00-7" />
    <path
       inkscape:connector-curvature="0"
       style="fill:#989898;fill-opacity:1;stroke:none"
       d="m 354,848.36218 25,0 0,25 -25,0 z"
       id="rect2992-2-61-1" />
    <path
       style="fill:#0f0f0f;fill-opacity:1;stroke:none"
       d="m 104,973.36218 25,0 0,25.00002 -25,0 z"
       id="rect2992-3-0"
       inkscape:connector-curvature="0" />
    <path
       inkscape:connector-curvature="0"
       style="fill:#cacaca;fill-opacity:1;stroke:none"
       d="m 404,923.36218 25,0 0,25 -25,0 z"
       id="rect2992-5-7-7" />
    <path
       inkscape:connector-curvature="0"
       style="fill:#262626;fill-opacity:1;stroke:none"
       d="m 129,948.36218 25,0 0,25 -25,0 z"
       id="rect2992-14-0-9" />
    <path
       inkscape:connector-curvature="0"
       style="fill:#262626;fill-opacity:1;stroke:none"
       d="m 204,973.36218 25,0 0,25.00002 -25,0 z"
       id="rect2992-23-1-6" />
    <path
       inkscape:connector-curvature="0"
       style="fill:#686868;fill-opacity:1;stroke:none"
       d="m 154,923.36218 25,0 0,25 -25,0 z"
       id="rect2992-16-5-1" />
    <path
       inkscape:connector-curvature="0"
       style="fill:#686868;fill-opacity:1;stroke:none"
       d="m 454,948.36218 25,0 0,25.00002 -25,0 z"
       id="rect2992-85-7-0" />
    <path
       inkscape:connector-curvature="0"
       style="fill:#6d6d6d;fill-opacity:1;stroke:none"
       d="m 179,948.36218 25,0 0,25 -25,0 z"
       id="rect2992-27-4-9" />
    <path
       inkscape:connector-curvature="0"
       style="fill:#6d6d6d;fill-opacity:1;stroke:none"
       d="m 129,998.3622 25,0 0,25 -25,0 z"
       id="rect2992-95-12-6" />
    <path
       inkscape:connector-curvature="0"
       style="fill:#6d6d6d;fill-opacity:1;stroke:none"
       d="m 54,973.36218 25,0 0,25.00002 -25,0 z"
       id="rect2992-43-0-8" />
    <path
       inkscape:connector-curvature="0"
       style="fill:#717171;fill-opacity:1;stroke:none"
       d="m 54,923.36218 25,0 0,25 -25,0 z"
       id="rect2992-27-1-0-3" />
    <path
       inkscape:connector-curvature="0"
       style="fill:#717171;fill-opacity:1;stroke:none"
       d="m 79,948.36218 25,0 0,25.00002 -25,0 z"
       id="rect2992-95-1-1-4" />
    <path
       inkscape:connector-curvature="0"
       style="fill:#717171;fill-opacity:1;stroke:none"
       d="m 179,1048.3622 25,0 0,25 -25,0 z"
       id="rect2992-43-3-4-8" />
    <path
       inkscape:connector-curvature="0"
       style="fill:#808080;fill-opacity:1;stroke:none"
       d="m 229,923.36218 25,0 0,25 -25,0 z"
       id="rect2992-27-7-6-4" />
    <path
       inkscape:connector-curvature="0"
       style="fill:#808080;fill-opacity:1;stroke:none"
       d="m 29,948.36218 25,0 0,25.00002 -25,0 z"
       id="rect2992-95-4-0-9" />
    <path
       inkscape:connector-curvature="0"
       style="fill:#808080;fill-opacity:1;stroke:none"
       d="m -21,973.36218 25,0 0,25.00002 -25,0 z"
       id="rect2992-43-2-7-9" />
    <path
       inkscape:connector-curvature="0"
       style="fill:#808080;fill-opacity:1;stroke:none"
       d="m 254,948.36218 25,0 0,25 -25,0 z"
       id="rect2992-27-79-1-2" />
    <path
       inkscape:connector-curvature="0"
       style="fill:#808080;fill-opacity:1;stroke:none"
       d="m 229,1023.3622 25,0 0,25 -25,0 z"
       id="rect2992-95-3-7-5" />
    <path
       inkscape:connector-curvature="0"
       style="fill:#808080;fill-opacity:1;stroke:none"
       d="m 304,1048.3622 25,0 0,25 -25,0 z"
       id="rect2992-43-1-7-5" />
    <path
       inkscape:connector-curvature="0"
       style="fill:#808080;fill-opacity:1;stroke:none"
       d="m 279,948.36218 25,0 0,25 -25,0 z"
       id="rect2992-27-8-7-3" />
    <path
       inkscape:connector-curvature="0"
       style="fill:#808080;fill-opacity:1;stroke:none"
       d="m 279,973.36218 25,0 0,25.00012 -25,0 z"
       id="rect2992-95-6-7-3" />
    <path
       inkscape:connector-curvature="0"
       style="fill:#808080;fill-opacity:1;stroke:none"
       d="m 354,1023.3622 25,0 0,25 -25,0 z"
       id="rect2992-43-5-3-3" />
    <path
       inkscape:connector-curvature="0"
       style="fill:#8a8a8a;fill-opacity:1;stroke:none"
       d="m 329,923.36218 25,0 0,25 -25,0 z"
       id="rect2992-27-2-3-7" />
    <path
       inkscape:connector-curvature="0"
       style="fill:#8a8a8a;fill-opacity:1;stroke:none"
       d="m 379,998.3621 25,0 0,25.0001 -25,0 z"
       id="rect2992-95-8-5-4" />
    <path
       inkscape:connector-curvature="0"
       style="fill:#8a8a8a;fill-opacity:1;stroke:none"
       d="m 504,973.36216 25,0 0,25.00004 -25,0 z"
       id="rect2992-43-6-9-3" />
    <path
       inkscape:connector-curvature="0"
       style="fill:#8d8d8d;fill-opacity:1;stroke:none"
       d="m 354,948.36218 25,0 0,25 -25,0 z"
       id="rect2992-2-2-9-8" />
    <path
       inkscape:connector-curvature="0"
       style="fill:#8d8d8d;fill-opacity:1;stroke:none"
       d="m 329,998.3621 25,0 0,25.0001 -25,0 z"
       id="rect2992-2-8-8-0" />
    <path
       inkscape:connector-curvature="0"
       style="fill:#989898;fill-opacity:1;stroke:none"
       d="m 429,973.36216 25,0 0,25.00004 -25,0 z"
       id="rect2992-2-00-6-8" />
    <path
       inkscape:connector-curvature="0"
       style="fill:#989898;fill-opacity:1;stroke:none"
       d="m 429,923.36218 25,0 0,25 -25,0 z"
       id="rect2992-2-61-0-1" />
    <path
       inkscape:connector-curvature="0"
       style="fill:#0f0f0f;fill-opacity:1;stroke:none"
       d="m 104,698.36218 25,0 0,25 -25,0 z"
       id="rect2992-76-8" />
    <path
       inkscape:connector-curvature="0"
       style="fill:#b7b7b7;fill-opacity:1;stroke:none"
       d="m 129,673.36218 25,0 0,25 -25,0 z"
       id="rect2992-23-9" />
    <path
       inkscape:connector-curvature="0"
       style="fill:#b7b7b7;fill-opacity:1;stroke:none"
       d="m 154,673.36218 25,0 0,25 -25,0 z"
       id="rect2992-85-2" />
    <path
       inkscape:connector-curvature="0"
       style="fill:#b7b7b7;fill-opacity:1;stroke:none"
       d="m 179,673.36218 25,0 0,25 -25,0 z"
       id="rect2992-95-82" />
    <path
       inkscape:connector-curvature="0"
       style="fill:#b7b7b7;fill-opacity:1;stroke:none"
       d="m 179,698.36218 25,0 0,25 -25,0 z"
       id="rect2992-43-8" />
    <path
       inkscape:connector-curvature="0"
       style="fill:#b7b7b7;fill-opacity:1;stroke:none"
       d="m 204,673.36218 25,0 0,25 -25,0 z"
       id="rect2992-95-1-9" />
    <path
       inkscape:connector-curvature="0"
       style="fill:#b7b7b7;fill-opacity:1;stroke:none"
       d="m 204,698.36218 25,0 0,25 -25,0 z"
       id="rect2992-43-3-0" />
    <path
       inkscape:connector-curvature="0"
       style="fill:#b7b7b7;fill-opacity:1;stroke:none"
       d="m 229,673.36218 25,0 0,25 -25,0 z"
       id="rect2992-95-4-7" />
    <path
       inkscape:connector-curvature="0"
       style="fill:#b7b7b7;fill-opacity:1;stroke:none"
       d="m 229,698.36218 25,0 0,25 -25,0 z"
       id="rect2992-43-2-8" />
    <path
       inkscape:connector-curvature="0"
       style="fill:#b7b7b7;fill-opacity:1;stroke:none"
       d="m 254,673.36218 25,0 0,25 -25,0 z"
       id="rect2992-95-3-1" />
    <path
       inkscape:connector-curvature="0"
       style="fill:#b7b7b7;fill-opacity:1;stroke:none"
       d="m 254,698.36218 25,0 0,25 -25,0 z"
       id="rect2992-43-1-5" />
    <path
       inkscape:connector-curvature="0"
       style="fill:#b7b7b7;fill-opacity:1;stroke:none"
       d="m 279,673.36218 25,0 0,25 -25,0 z"
       id="rect2992-95-6-8" />
    <path
       inkscape:connector-curvature="0"
       style="fill:#b7b7b7;fill-opacity:1;stroke:none"
       d="m 279,698.36218 25,0 0,25 -25,0 z"
       id="rect2992-43-5-6" />
    <path
       inkscape:connector-curvature="0"
       style="fill:#b7b7b7;fill-opacity:1;stroke:none"
       d="m 304,673.36218 25,0 0,25 -25,0 z"
       id="rect2992-95-8-1" />
    <path
       inkscape:connector-curvature="0"
       style="fill:#b7b7b7;fill-opacity:1;stroke:none"
       d="m 304,698.36218 25,0 0,25 -25,0 z"
       id="rect2992-43-6-2" />
    <path
       inkscape:connector-curvature="0"
       style="fill:#b7b7b7;fill-opacity:1;stroke:none"
       d="m 329,673.36218 25,0 0,25 -25,0 z"
       id="rect2992-2-8-4" />
    <path
       inkscape:connector-curvature="0"
       style="fill:#cacaca;fill-opacity:1;stroke:none"
       d="m 379,698.36218 25,0 0,25 -25,0 z"
       id="rect2992-2-0-86" />
    <path
       inkscape:connector-curvature="0"
       style="fill:#b7b7b7;fill-opacity:1;stroke:none"
       d="m 354,673.36218 25,0 0,25 -25,0 z"
       id="rect2992-2-00-65" />
    <path
       inkscape:connector-curvature="0"
       style="fill:#686868;fill-opacity:1;stroke:none"
       d="m 154,723.36218 25,0 0,25 -25,0 z"
       id="rect2992-761-39" />
    <g
       style="font-size:144px;font-style:normal;font-variant:normal;font-weight:normal;font-stretch:normal;line-height:125%;letter-spacing:0px;word-spacing:0px;fill:#000000;fill-opacity:1;stroke:none;font-family:Bodoni MT;-inkscape-font-specification:Bodoni MT"
       id="text4683">
      <path
         d="m 542.49219,728.01843 0,91.75782 9.49218,0 0,3.58593 -7.875,0 c -4.96881,0 -10.2188,0.28125 -15.75,0.84375 l 0,-11.53125 -0.28125,0 c -3.75004,8.29688 -9.75003,12.44531 -18,12.44532 -6.60939,-10e-6 -12.43361,-2.94141 -17.47265,-8.82422 -5.03907,-5.8828 -7.5586,-12.55077 -7.5586,-20.00391 0,-7.96871 2.66015,-14.95308 7.98047,-20.95312 5.3203,-5.99995 11.58982,-8.99995 18.8086,-9 7.35933,5e-5 12.77339,3.30474 16.24218,9.91406 l 0.28125,0 0,-43.59375 -12.79687,0 0,-3.58594 12.79687,0 c 4.73433,9e-5 9.44526,-0.35147 14.13282,-1.05469 z m -30.23438,41.48438 c -5.1094,5e-5 -8.30862,1.91021 -9.59765,5.73047 -1.28909,3.82035 -1.93362,11.56644 -1.9336,23.23828 -2e-5,10.07814 0.82029,16.42969 2.46094,19.05469 1.6406,2.625 4.28903,3.9375 7.94531,3.9375 3.93747,0 7.40621,-1.33594 10.40625,-4.00782 2.99996,-2.67186 4.9687,-5.71874 5.90625,-9.14062 0.93745,-3.42186 1.4062,-8.97654 1.40625,-16.66406 -5e-5,-7.31247 -1.47661,-12.83199 -4.42969,-16.5586 -2.95316,-3.72651 -7.00785,-5.58979 -12.16406,-5.58984 z"
         style="font-family:Bodoni MT;-inkscape-font-specification:Bodoni MT"
         id="path4851" />
      <path
         d="m 568.71875,739.97156 c -10e-6,-2.06242 0.7617,-3.84367 2.28516,-5.34375 1.52342,-1.49991 3.31638,-2.24991 5.3789,-2.25 2.06248,9e-5 3.85545,0.73837 5.37891,2.21484 1.52341,1.47665 2.28513,3.26962 2.28515,5.37891 -2e-5,2.2032 -0.75002,4.03133 -2.25,5.48437 -1.50002,1.4532 -3.30471,2.17977 -5.41406,2.17969 -2.10939,8e-5 -3.91408,-0.7382 -5.41406,-2.21484 -1.50001,-1.47649 -2.25001,-3.29289 -2.25,-5.44922 z m 14.13281,27.07031 0,52.73438 9.21094,0 0,3.58593 -32.69531,0 0,-3.58593 9.84375,0 0,-48.09375 -9.84375,0 0,-3.58594 9.98437,0 c 4.78123,5e-5 9.28123,-0.35151 13.5,-1.05469 z"
         style="font-family:Bodoni MT;-inkscape-font-specification:Bodoni MT"
         id="path4853" />
      <path
         d="m 609.85156,819.77625 0,-48.09375 -11.67187,0 0,-3.58594 11.67187,0 c -0.37501,-12.42181 2.19139,-22.20696 7.69922,-29.35547 5.50779,-7.14835 12.05856,-10.72256 19.65234,-10.72266 3.65621,1e-4 6.83199,1.05478 9.52735,3.16407 2.69526,2.10946 4.04291,4.66415 4.04297,7.66406 -6e-5,2.06258 -0.64459,3.79695 -1.9336,5.20312 -1.28911,1.40633 -2.91802,2.10945 -4.88672,2.10938 -1.68754,7e-5 -3.14067,-0.58586 -4.35937,-1.75781 -1.21879,-1.1718 -1.82817,-2.64836 -1.82813,-4.42969 -4e-5,-2.76554 1.54684,-5.06241 4.64063,-6.89063 -1.4063,-1.26553 -3.46879,-1.89834 -6.1875,-1.89843 -2.62504,9e-5 -5.10941,0.79696 -7.45313,2.39062 -2.34378,1.59384 -3.77346,3.99618 -4.28906,7.20703 -0.51565,3.21102 -0.77346,8.37898 -0.77344,15.50391 l 0,11.8125 13.07813,0 0,3.58594 -13.07813,0 0,48.09375 11.8125,0 0,3.58593 -36.14062,0 0,-3.58593 z"
         style="font-family:Bodoni MT;-inkscape-font-specification:Bodoni MT"
         id="path4855" />
      <path
         d="m 656.53906,819.77625 0,-48.09375 -11.67187,0 0,-3.58594 11.67187,0 c -0.37501,-12.42181 2.19139,-22.20696 7.69922,-29.35547 5.50779,-7.14835 12.05856,-10.72256 19.65234,-10.72266 3.65621,1e-4 6.83199,1.05478 9.52735,3.16407 2.69526,2.10946 4.04291,4.66415 4.04297,7.66406 -6e-5,2.06258 -0.64459,3.79695 -1.9336,5.20312 -1.28911,1.40633 -2.91802,2.10945 -4.88672,2.10938 -1.68754,7e-5 -3.14067,-0.58586 -4.35937,-1.75781 -1.21879,-1.1718 -1.82817,-2.64836 -1.82813,-4.42969 -4e-5,-2.76554 1.54684,-5.06241 4.64063,-6.89063 -1.4063,-1.26553 -3.46879,-1.89834 -6.1875,-1.89843 -2.62504,9e-5 -5.10941,0.79696 -7.45313,2.39062 -2.34378,1.59384 -3.77346,3.99618 -4.28906,7.20703 -0.51565,3.21102 -0.77346,8.37898 -0.77344,15.50391 l 0,11.8125 13.07813,0 0,3.58594 -13.07813,0 0,48.09375 11.8125,0 0,3.58593 -36.14062,0 0,-3.58593 z"
         style="font-family:Bodoni MT;-inkscape-font-specification:Bodoni MT"
         id="path4857" />
      <path
         d="m 715.88281,814.15125 0,42.04687 11.39063,0 0,4.00781 -34.52344,0 0,-4.00781 9.49219,0 0,-84.51562 -10.40625,0 0,-3.58594 7.94531,0 c 5.81248,5e-5 11.17966,-0.30463 16.10156,-0.91406 l 0,11.10937 0.28125,0 c 3.8906,-7.9687 9.89059,-11.95307 18,-11.95312 6.6562,5e-5 12.50385,2.75396 17.54297,8.26171 5.03899,5.50786 7.55852,12.05863 7.55859,19.65235 -7e-5,8.10939 -2.75397,15.12892 -8.26171,21.05859 -5.50787,5.92969 -11.63677,8.89453 -18.38672,8.89453 -7.07817,0 -12.56253,-3.35156 -16.45313,-10.05468 z M 743.58594,795.87 c -6e-5,-8.76559 -0.24615,-14.63668 -0.73828,-17.61329 -0.49225,-2.97651 -1.61724,-5.17963 -3.375,-6.60937 -1.75787,-1.42964 -3.7149,-2.14448 -5.8711,-2.14453 -4.59379,5e-5 -8.27347,1.52349 -11.03906,4.57031 -2.76566,3.04692 -4.57034,6.02348 -5.41406,8.92969 -0.84378,2.90629 -1.26566,7.19534 -1.26563,12.86719 -3e-5,5.95314 0.39841,10.50001 1.19531,13.64062 0.79685,3.14064 2.707,5.84766 5.73047,8.12109 3.0234,2.27344 6.38668,3.41016 10.08985,3.41016 3.8437,0 6.58588,-1.6289 8.22656,-4.88672 1.64057,-3.2578 2.46088,-10.01951 2.46094,-20.28515 z"
         style="font-family:Bodoni MT;-inkscape-font-specification:Bodoni MT"
         id="path4859" />
      <path
         d="m 780.28906,819.77625 0,-48.09375 -11.39062,0 0,-3.58594 11.53125,0 c 5.90623,5e-5 10.40622,-0.30463 13.5,-0.91406 l 0,13.28906 0.28125,0 c 3.28122,-8.85933 8.13277,-13.28901 14.55468,-13.28906 2.81246,5e-5 5.07418,0.85552 6.78516,2.5664 1.71089,1.71099 2.56636,3.78521 2.56641,6.22266 -5e-5,2.25004 -0.69146,4.06645 -2.07422,5.44922 -1.38286,1.38285 -3.17583,2.07425 -5.37891,2.07422 -4.03129,3e-5 -6.04691,-2.01559 -6.04687,-6.04688 l 0.28125,-3.02344 c -4e-5,-1.07807 -0.49223,-1.61713 -1.47657,-1.61718 -1.54691,5e-5 -3.51565,2.08598 -5.90625,6.25781 -2.39065,4.17191 -3.58596,10.54691 -3.58593,19.125 l 0,21.58594 11.67187,0 0,3.58593 -36.70312,0 0,-3.58593 z"
         style="font-family:Bodoni MT;-inkscape-font-specification:Bodoni MT"
         id="path4861" />
      <path
         d="m 833.375,739.97156 c -10e-6,-2.06242 0.7617,-3.84367 2.28516,-5.34375 1.52342,-1.49991 3.31638,-2.24991 5.3789,-2.25 2.06248,9e-5 3.85545,0.73837 5.37891,2.21484 1.52341,1.47665 2.28513,3.26962 2.28515,5.37891 -2e-5,2.2032 -0.75002,4.03133 -2.25,5.48437 -1.50002,1.4532 -3.30471,2.17977 -5.41406,2.17969 -2.10939,8e-5 -3.91408,-0.7382 -5.41406,-2.21484 -1.50001,-1.47649 -2.25001,-3.29289 -2.25,-5.44922 z m 14.13281,27.07031 0,52.73438 9.21094,0 0,3.58593 -32.69531,0 0,-3.58593 9.84375,0 0,-48.09375 -9.84375,0 0,-3.58594 9.98437,0 c 4.78123,5e-5 9.28123,-0.35151 13.5,-1.05469 z"
         style="font-family:Bodoni MT;-inkscape-font-specification:Bodoni MT"
         id="path4863" />
      <path
         d="m 926.04687,771.6825 -26.64843,53.85937 -1.82813,0 L 870.5,771.6825 l -8.50781,0 0,-3.58594 34.52343,0 0,3.58594 -10.61718,0 18.42187,37.40625 18.14063,-37.40625 -10.61719,0 0,-3.58594 22.85156,0 0,3.58594 z"
         style="font-family:Bodoni MT;-inkscape-font-specification:Bodoni MT"
         id="path4865" />
    </g>
    <path
       inkscape:connector-curvature="0"
       style="fill:#0f0f0f;fill-opacity:1;stroke:none"
       d="m 104,673.36218 25,0 0,25 -25,0 z"
       id="rect2992-76-8-2" />
    <path
       inkscape:connector-curvature="0"
       style="fill:#262626;fill-opacity:1;stroke:none"
       d="m 129,698.36218 25,0 0,25 -25,0 z"
       id="rect2992-23-6" />
    <path
       inkscape:connector-curvature="0"
       style="fill:#686868;fill-opacity:1;stroke:none"
       d="m 154,698.36218 25,0 0,25 -25,0 z"
       id="rect2992-761-39-1" />
    <path
       inkscape:connector-curvature="0"
       style="fill:#6d6d6d;fill-opacity:1;stroke:none"
       d="m 179,723.36218 25,0 0,25 -25,0 z"
       id="rect2992-43-82" />
    <path
       inkscape:connector-curvature="0"
       style="fill:#717171;fill-opacity:1;stroke:none"
       d="m 204,723.36218 25,0 0,25 -25,0 z"
       id="rect2992-43-3-1" />
    <path
       inkscape:connector-curvature="0"
       style="fill:#808080;fill-opacity:1;stroke:none"
       d="m 229,723.36219 25,0 0,25 -25,0 z"
       id="rect2992-43-2-1" />
    <path
       inkscape:connector-curvature="0"
       style="fill:#808080;fill-opacity:1;stroke:none"
       d="m 254,723.36219 25,0 0,25 -25,0 z"
       id="rect2992-43-1-9" />
    <path
       inkscape:connector-curvature="0"
       style="fill:#808080;fill-opacity:1;stroke:none"
       d="m 279,723.36219 25,0 0,25 -25,0 z"
       id="rect2992-43-5-7" />
    <path
       inkscape:connector-curvature="0"
       style="fill:#8a8a8a;fill-opacity:1;stroke:none"
       d="m 304,723.36219 25,0 0,25 -25,0 z"
       id="rect2992-43-6-6" />
    <path
       inkscape:connector-curvature="0"
       style="fill:#8d8d8d;fill-opacity:1;stroke:none"
       d="m 329,698.36219 25,0 0,25 -25,0 z"
       id="rect2992-2-8-2" />
    <path
       inkscape:connector-curvature="0"
       style="fill:#989898;fill-opacity:1;stroke:none"
       d="m 354,698.36219 25,0 0,25 -25,0 z"
       id="rect2992-2-00-9" />
    <path
       inkscape:connector-curvature="0"
       style="fill:#cacaca;fill-opacity:1;stroke:none"
       d="m 379,673.36218 25,0 0,25 -25,0 z"
       id="rect2992-2-0-86-5" />
    <path
       sodipodi:type="arc"
       style="fill:#b7b7b7;fill-opacity:1;stroke:none"
       id="path4655"
       sodipodi:cx="250"
       sodipodi:cy="125"
       sodipodi:rx="150"
       sodipodi:ry="75"
       d="m 400,125 a 150,75 0 1 1 -300,0 150,75 0 1 1 300,0 z"
       transform="translate(4,548.36219)" />
  </g>
</svg>
